# xmcd
#
# Track frame offsets: 
#        150
#        20878
#        47294
#        63598
#        88389
#        115031
#        143892
#        167432
#        197724
#        217529
#
# Disc length: 2962 seconds
#
# Revision: 0
# Processed by: cddbd v1.5.2PL0 Copyright (c) Steve Scherf et al.
# Submitted via: ExactAudioCopy v0.99pb5
#
DISCID=840b900a
DTITLE=Catapult - The Architecture Of A Year
DYEAR=1998
DGENRE=Blackbean And Placenta
TTITLE0=August 15th
TTITLE1=Convert To Metric
TTITLE2=Birthday
TTITLE3=Sound Of Night
TTITLE4=Next Door
TTITLE5=The Ink Truck
TTITLE6=A Number One
TTITLE7=Sunday Sank At 11:00
TTITLE8=Supersurreal
TTITLE9=Hit The Random Button
EXTD=
EXTT0=
EXTT1=
EXTT2=
EXTT3=
EXTT4=
EXTT5=
EXTT6=
EXTT7=
EXTT8=
EXTT9=
PLAYORDER=
